<?xml version="1.0" standalone="no"?>
<!DOCTYPE svg PUBLIC "-//W3C//DTD SVG 20010904//EN"
 "http://www.w3.org/TR/2001/REC-SVG-20010904/DTD/svg10.dtd">
<svg version="1.0" xmlns="http://www.w3.org/2000/svg"
 width="750.000000pt" height="1625.000000pt" viewBox="0 0 750.000000 1625.000000"
 preserveAspectRatio="xMidYMid meet">
<metadata>
Created by potrace 1.16, written by Peter Selinger 2001-2019
</metadata>
<g transform="translate(0.000000,1625.000000) scale(0.100000,-0.100000)"
fill="#000000" stroke="none">
<path d="M3825 9030 c-11 -4 -192 -181 -402 -392 -409 -409 -407 -407 -364
-459 l19 -24 379 -3 c253 -2 390 0 415 8 58 17 60 32 56 463 l-3 379 -24 19
c-25 20 -44 23 -76 9z"/>
<path d="M3950 8130 c-19 -19 -20 -33 -20 -255 0 -228 1 -235 22 -255 47 -43
58 -35 301 208 243 243 252 257 207 302 -19 19 -33 20 -255 20 -222 0 -236 -1
-255 -20z"/>
<path d="M3420 1227 c-14 -7 -31 -26 -39 -42 -19 -39 -1 -70 58 -104 54 -32
66 -50 57 -84 -8 -33 -44 -44 -93 -29 -30 9 -34 8 -31 -6 5 -26 68 -36 112
-18 67 28 70 101 5 143 -70 46 -79 54 -79 78 0 31 33 49 76 42 24 -4 34 -2 34
7 0 25 -61 33 -100 13z"/>
<path d="M3723 1085 c-46 -138 -49 -155 -33 -155 13 0 23 14 35 50 l17 51 56
-3 56 -3 15 -47 c11 -36 20 -48 34 -48 11 0 17 5 15 13 -3 6 -26 76 -52 155
-42 125 -50 142 -70 142 -19 0 -27 -18 -73 -155z"/>
<path d="M4093 1085 c-46 -138 -49 -155 -33 -155 13 0 23 14 35 50 l17 51 56
-3 56 -3 15 -47 c11 -36 20 -48 34 -48 11 0 17 5 15 13 -3 6 -26 76 -52 155
-42 125 -50 142 -70 142 -19 0 -27 -18 -73 -155z"/>
<path d="M2350 662 c-33 -27 -33 -97 -1 -123 49 -40 103 -9 105 60 1 69 -55
103 -104 63z"/>
</g>
</svg>
